# xmcd
#
# Track frame offsets:
#	150
#	20432
#	41370
#	56540
#	73350
#	94187
#	108770
#	122517
#	139740
#	156230
#	173747
#
# Disc length: 2544 seconds
#
# Revision: 3
# Processed by: cddbd v1.5.2PL0 Copyright (c) Steve Scherf et al.
# Submitted via: audiograbber 1.83.01
#
DISCID=8e09ee0b
DTITLE=Graeme Connors - The Road Less Travelled
DYEAR=1996
DGENRE=Country
TTITLE0=The Road Less Travelled
TTITLE1=All That Matters Now (Duet with Elizabeth Lord)
TTITLE2=I Won't Forget Loving You
TTITLE3=Let It Rain
TTITLE4=Boomerang In Paraguay
TTITLE5=Big Jimmy And Felicidad
TTITLE6=Talking To An Old Lover
TTITLE7=Hart Creek Debutante Ball
TTITLE8=The Places I Go In My Mind
TTITLE9=Sunset Bay
TTITLE10=You, Me, All The Same Brothers
EXTD=Great Album
EXTT0=
EXTT1=
EXTT2=
EXTT3=
EXTT4=
EXTT5=
EXTT6=
EXTT7=
EXTT8=
EXTT9=
EXTT10=
PLAYORDER=
